<mxfile host="app.diagrams.net" modified="2022-01-11T15:26:57.332Z" agent="5.0 (Windows NT 10.0; Win64; x64) AppleWebKit/537.36 (KHTML, like Gecko) Chrome/97.0.4692.71 Safari/537.36" etag="dCrUS8h25zD-hlc0m-F8" version="15.7.0" type="github">
  <diagram id="C5RBs43oDa-KdzZeNtuy" name="Page-1">
    <mxGraphModel dx="1929" dy="558" grid="1" gridSize="10" guides="1" tooltips="1" connect="1" arrows="1" fold="1" page="1" pageScale="1" pageWidth="827" pageHeight="1169" math="0" shadow="0">
      <root>
        <mxCell id="WIyWlLk6GJQsqaUBKTNV-0" />
        <mxCell id="WIyWlLk6GJQsqaUBKTNV-1" parent="WIyWlLk6GJQsqaUBKTNV-0" />
        <mxCell id="4o3yA48tjIdpUD1kdbq8-2" style="edgeStyle=orthogonalEdgeStyle;rounded=0;orthogonalLoop=1;jettySize=auto;html=1;entryX=0.5;entryY=0;entryDx=0;entryDy=0;" edge="1" parent="WIyWlLk6GJQsqaUBKTNV-1" source="4o3yA48tjIdpUD1kdbq8-0" target="4o3yA48tjIdpUD1kdbq8-1">
          <mxGeometry relative="1" as="geometry" />
        </mxCell>
        <mxCell id="4o3yA48tjIdpUD1kdbq8-0" value="Start" style="ellipse;whiteSpace=wrap;html=1;" vertex="1" parent="WIyWlLk6GJQsqaUBKTNV-1">
          <mxGeometry x="354" y="80" width="120" height="80" as="geometry" />
        </mxCell>
        <mxCell id="4o3yA48tjIdpUD1kdbq8-4" style="edgeStyle=orthogonalEdgeStyle;rounded=0;orthogonalLoop=1;jettySize=auto;html=1;entryX=0.5;entryY=0;entryDx=0;entryDy=0;" edge="1" parent="WIyWlLk6GJQsqaUBKTNV-1" source="4o3yA48tjIdpUD1kdbq8-1" target="4o3yA48tjIdpUD1kdbq8-3">
          <mxGeometry relative="1" as="geometry" />
        </mxCell>
        <mxCell id="4o3yA48tjIdpUD1kdbq8-1" value="Login" style="shape=parallelogram;perimeter=parallelogramPerimeter;whiteSpace=wrap;html=1;fixedSize=1;" vertex="1" parent="WIyWlLk6GJQsqaUBKTNV-1">
          <mxGeometry x="354" y="210" width="120" height="60" as="geometry" />
        </mxCell>
        <mxCell id="4o3yA48tjIdpUD1kdbq8-6" style="edgeStyle=orthogonalEdgeStyle;rounded=0;orthogonalLoop=1;jettySize=auto;html=1;entryX=0.5;entryY=0;entryDx=0;entryDy=0;" edge="1" parent="WIyWlLk6GJQsqaUBKTNV-1" source="4o3yA48tjIdpUD1kdbq8-3" target="4o3yA48tjIdpUD1kdbq8-5">
          <mxGeometry relative="1" as="geometry" />
        </mxCell>
        <mxCell id="4o3yA48tjIdpUD1kdbq8-3" value="valid ?" style="rhombus;whiteSpace=wrap;html=1;" vertex="1" parent="WIyWlLk6GJQsqaUBKTNV-1">
          <mxGeometry x="374" y="320" width="80" height="80" as="geometry" />
        </mxCell>
        <mxCell id="4o3yA48tjIdpUD1kdbq8-8" style="edgeStyle=orthogonalEdgeStyle;rounded=0;orthogonalLoop=1;jettySize=auto;html=1;startArrow=none;" edge="1" parent="WIyWlLk6GJQsqaUBKTNV-1" source="4o3yA48tjIdpUD1kdbq8-55" target="4o3yA48tjIdpUD1kdbq8-7">
          <mxGeometry relative="1" as="geometry" />
        </mxCell>
        <mxCell id="4o3yA48tjIdpUD1kdbq8-5" value="Auto Scan wifi" style="rounded=0;whiteSpace=wrap;html=1;" vertex="1" parent="WIyWlLk6GJQsqaUBKTNV-1">
          <mxGeometry x="354" y="440" width="120" height="60" as="geometry" />
        </mxCell>
        <mxCell id="4o3yA48tjIdpUD1kdbq8-13" style="edgeStyle=orthogonalEdgeStyle;rounded=0;orthogonalLoop=1;jettySize=auto;html=1;entryX=0.5;entryY=0;entryDx=0;entryDy=0;entryPerimeter=0;" edge="1" parent="WIyWlLk6GJQsqaUBKTNV-1" source="4o3yA48tjIdpUD1kdbq8-7" target="4o3yA48tjIdpUD1kdbq8-10">
          <mxGeometry relative="1" as="geometry" />
        </mxCell>
        <mxCell id="4o3yA48tjIdpUD1kdbq8-7" value="result of wifi scanning" style="strokeWidth=2;html=1;shape=mxgraph.flowchart.display;whiteSpace=wrap;" vertex="1" parent="WIyWlLk6GJQsqaUBKTNV-1">
          <mxGeometry x="364" y="540" width="100" height="60" as="geometry" />
        </mxCell>
        <mxCell id="4o3yA48tjIdpUD1kdbq8-9" value="yes" style="text;html=1;align=center;verticalAlign=middle;resizable=0;points=[];autosize=1;strokeColor=none;fillColor=none;" vertex="1" parent="WIyWlLk6GJQsqaUBKTNV-1">
          <mxGeometry x="415" y="410" width="30" height="20" as="geometry" />
        </mxCell>
        <mxCell id="4o3yA48tjIdpUD1kdbq8-15" style="edgeStyle=orthogonalEdgeStyle;rounded=0;orthogonalLoop=1;jettySize=auto;html=1;exitX=1;exitY=0.5;exitDx=0;exitDy=0;exitPerimeter=0;" edge="1" parent="WIyWlLk6GJQsqaUBKTNV-1" source="4o3yA48tjIdpUD1kdbq8-10" target="4o3yA48tjIdpUD1kdbq8-11">
          <mxGeometry relative="1" as="geometry" />
        </mxCell>
        <mxCell id="4o3yA48tjIdpUD1kdbq8-17" style="edgeStyle=orthogonalEdgeStyle;rounded=0;orthogonalLoop=1;jettySize=auto;html=1;exitX=0;exitY=0.5;exitDx=0;exitDy=0;exitPerimeter=0;entryX=1;entryY=0.5;entryDx=0;entryDy=0;entryPerimeter=0;" edge="1" parent="WIyWlLk6GJQsqaUBKTNV-1" source="4o3yA48tjIdpUD1kdbq8-10" target="4o3yA48tjIdpUD1kdbq8-12">
          <mxGeometry relative="1" as="geometry" />
        </mxCell>
        <mxCell id="4o3yA48tjIdpUD1kdbq8-20" style="edgeStyle=elbowEdgeStyle;rounded=0;orthogonalLoop=1;jettySize=auto;html=1;entryX=0.5;entryY=0;entryDx=0;entryDy=0;exitX=0.5;exitY=1;exitDx=0;exitDy=0;exitPerimeter=0;elbow=vertical;" edge="1" parent="WIyWlLk6GJQsqaUBKTNV-1" source="4o3yA48tjIdpUD1kdbq8-10" target="4o3yA48tjIdpUD1kdbq8-19">
          <mxGeometry relative="1" as="geometry" />
        </mxCell>
        <mxCell id="4o3yA48tjIdpUD1kdbq8-10" value="Jamming?" style="strokeWidth=2;html=1;shape=mxgraph.flowchart.decision;whiteSpace=wrap;" vertex="1" parent="WIyWlLk6GJQsqaUBKTNV-1">
          <mxGeometry x="364" y="640" width="100" height="100" as="geometry" />
        </mxCell>
        <mxCell id="4o3yA48tjIdpUD1kdbq8-24" style="edgeStyle=orthogonalEdgeStyle;rounded=0;orthogonalLoop=1;jettySize=auto;html=1;entryX=1;entryY=0.5;entryDx=0;entryDy=0;entryPerimeter=0;" edge="1" parent="WIyWlLk6GJQsqaUBKTNV-1" source="4o3yA48tjIdpUD1kdbq8-11" target="4o3yA48tjIdpUD1kdbq8-10">
          <mxGeometry relative="1" as="geometry" />
        </mxCell>
        <mxCell id="4o3yA48tjIdpUD1kdbq8-11" value="Twin" style="strokeWidth=2;html=1;shape=mxgraph.flowchart.decision;whiteSpace=wrap;" vertex="1" parent="WIyWlLk6GJQsqaUBKTNV-1">
          <mxGeometry x="540" y="640" width="100" height="100" as="geometry" />
        </mxCell>
        <mxCell id="4o3yA48tjIdpUD1kdbq8-26" style="edgeStyle=orthogonalEdgeStyle;rounded=0;orthogonalLoop=1;jettySize=auto;html=1;entryX=0;entryY=0.5;entryDx=0;entryDy=0;entryPerimeter=0;" edge="1" parent="WIyWlLk6GJQsqaUBKTNV-1" source="4o3yA48tjIdpUD1kdbq8-12" target="4o3yA48tjIdpUD1kdbq8-10">
          <mxGeometry relative="1" as="geometry" />
        </mxCell>
        <mxCell id="4o3yA48tjIdpUD1kdbq8-28" style="edgeStyle=orthogonalEdgeStyle;rounded=0;orthogonalLoop=1;jettySize=auto;html=1;entryX=1;entryY=0.5;entryDx=0;entryDy=0;" edge="1" parent="WIyWlLk6GJQsqaUBKTNV-1" source="4o3yA48tjIdpUD1kdbq8-12" target="4o3yA48tjIdpUD1kdbq8-27">
          <mxGeometry relative="1" as="geometry" />
        </mxCell>
        <mxCell id="4o3yA48tjIdpUD1kdbq8-12" value="DF ?" style="strokeWidth=2;html=1;shape=mxgraph.flowchart.decision;whiteSpace=wrap;" vertex="1" parent="WIyWlLk6GJQsqaUBKTNV-1">
          <mxGeometry x="180" y="640" width="100" height="100" as="geometry" />
        </mxCell>
        <mxCell id="4o3yA48tjIdpUD1kdbq8-14" value="yes" style="text;html=1;align=center;verticalAlign=middle;resizable=0;points=[];autosize=1;strokeColor=none;fillColor=none;" vertex="1" parent="WIyWlLk6GJQsqaUBKTNV-1">
          <mxGeometry x="415" y="610" width="30" height="20" as="geometry" />
        </mxCell>
        <mxCell id="4o3yA48tjIdpUD1kdbq8-16" value="no" style="text;html=1;align=center;verticalAlign=middle;resizable=0;points=[];autosize=1;strokeColor=none;fillColor=none;" vertex="1" parent="WIyWlLk6GJQsqaUBKTNV-1">
          <mxGeometry x="485" y="690" width="30" height="20" as="geometry" />
        </mxCell>
        <mxCell id="4o3yA48tjIdpUD1kdbq8-18" value="no" style="text;html=1;align=center;verticalAlign=middle;resizable=0;points=[];autosize=1;strokeColor=none;fillColor=none;" vertex="1" parent="WIyWlLk6GJQsqaUBKTNV-1">
          <mxGeometry x="305" y="690" width="30" height="20" as="geometry" />
        </mxCell>
        <mxCell id="4o3yA48tjIdpUD1kdbq8-46" style="edgeStyle=elbowEdgeStyle;rounded=0;orthogonalLoop=1;jettySize=auto;elbow=vertical;html=1;entryX=0.5;entryY=0;entryDx=0;entryDy=0;" edge="1" parent="WIyWlLk6GJQsqaUBKTNV-1" source="4o3yA48tjIdpUD1kdbq8-19" target="4o3yA48tjIdpUD1kdbq8-45">
          <mxGeometry relative="1" as="geometry" />
        </mxCell>
        <mxCell id="4o3yA48tjIdpUD1kdbq8-19" value="klik tombol jamming pada kolom action di row wifi target" style="rounded=1;whiteSpace=wrap;html=1;absoluteArcSize=1;arcSize=14;strokeWidth=2;" vertex="1" parent="WIyWlLk6GJQsqaUBKTNV-1">
          <mxGeometry x="180" y="790" width="100" height="100" as="geometry" />
        </mxCell>
        <mxCell id="4o3yA48tjIdpUD1kdbq8-21" value="yes" style="text;html=1;align=center;verticalAlign=middle;resizable=0;points=[];autosize=1;strokeColor=none;fillColor=none;" vertex="1" parent="WIyWlLk6GJQsqaUBKTNV-1">
          <mxGeometry x="415" y="750" width="30" height="20" as="geometry" />
        </mxCell>
        <mxCell id="4o3yA48tjIdpUD1kdbq8-23" value="yes" style="text;html=1;align=center;verticalAlign=middle;resizable=0;points=[];autosize=1;strokeColor=none;fillColor=none;" vertex="1" parent="WIyWlLk6GJQsqaUBKTNV-1">
          <mxGeometry x="600" y="750" width="30" height="20" as="geometry" />
        </mxCell>
        <mxCell id="4o3yA48tjIdpUD1kdbq8-31" style="edgeStyle=orthogonalEdgeStyle;rounded=0;orthogonalLoop=1;jettySize=auto;html=1;entryX=0.5;entryY=0.143;entryDx=0;entryDy=0;entryPerimeter=0;" edge="1" parent="WIyWlLk6GJQsqaUBKTNV-1" source="4o3yA48tjIdpUD1kdbq8-27" target="4o3yA48tjIdpUD1kdbq8-30">
          <mxGeometry relative="1" as="geometry" />
        </mxCell>
        <mxCell id="4o3yA48tjIdpUD1kdbq8-27" value="Klik SSID dari wifi&lt;br&gt;yang kemungkinan terkonek dengan target" style="rounded=1;whiteSpace=wrap;html=1;absoluteArcSize=1;arcSize=14;strokeWidth=2;" vertex="1" parent="WIyWlLk6GJQsqaUBKTNV-1">
          <mxGeometry x="20" y="640" width="100" height="100" as="geometry" />
        </mxCell>
        <mxCell id="4o3yA48tjIdpUD1kdbq8-29" value="yes" style="text;html=1;align=center;verticalAlign=middle;resizable=0;points=[];autosize=1;strokeColor=none;fillColor=none;" vertex="1" parent="WIyWlLk6GJQsqaUBKTNV-1">
          <mxGeometry x="135" y="690" width="30" height="20" as="geometry" />
        </mxCell>
        <mxCell id="4o3yA48tjIdpUD1kdbq8-33" style="edgeStyle=orthogonalEdgeStyle;rounded=0;orthogonalLoop=1;jettySize=auto;html=1;entryX=0.5;entryY=0;entryDx=0;entryDy=0;" edge="1" parent="WIyWlLk6GJQsqaUBKTNV-1" source="4o3yA48tjIdpUD1kdbq8-30" target="4o3yA48tjIdpUD1kdbq8-32">
          <mxGeometry relative="1" as="geometry" />
        </mxCell>
        <mxCell id="4o3yA48tjIdpUD1kdbq8-30" value="Tampil detil wifi&lt;br&gt;&amp;amp;&lt;br&gt;list user wifi," style="strokeWidth=2;html=1;shape=mxgraph.flowchart.display;whiteSpace=wrap;" vertex="1" parent="WIyWlLk6GJQsqaUBKTNV-1">
          <mxGeometry x="10" y="790" width="120" height="70" as="geometry" />
        </mxCell>
        <mxCell id="4o3yA48tjIdpUD1kdbq8-35" style="edgeStyle=orthogonalEdgeStyle;rounded=0;orthogonalLoop=1;jettySize=auto;html=1;entryX=0.5;entryY=0;entryDx=0;entryDy=0;entryPerimeter=0;" edge="1" parent="WIyWlLk6GJQsqaUBKTNV-1" source="4o3yA48tjIdpUD1kdbq8-32" target="4o3yA48tjIdpUD1kdbq8-34">
          <mxGeometry relative="1" as="geometry" />
        </mxCell>
        <mxCell id="4o3yA48tjIdpUD1kdbq8-32" value="klik df pada kolom action di row target" style="rounded=1;whiteSpace=wrap;html=1;absoluteArcSize=1;arcSize=14;strokeWidth=2;" vertex="1" parent="WIyWlLk6GJQsqaUBKTNV-1">
          <mxGeometry x="20" y="900" width="100" height="100" as="geometry" />
        </mxCell>
        <mxCell id="4o3yA48tjIdpUD1kdbq8-37" style="edgeStyle=orthogonalEdgeStyle;rounded=0;orthogonalLoop=1;jettySize=auto;html=1;entryX=0.5;entryY=0;entryDx=0;entryDy=0;" edge="1" parent="WIyWlLk6GJQsqaUBKTNV-1" source="4o3yA48tjIdpUD1kdbq8-34" target="4o3yA48tjIdpUD1kdbq8-36">
          <mxGeometry relative="1" as="geometry" />
        </mxCell>
        <mxCell id="4o3yA48tjIdpUD1kdbq8-34" value="tampil detil&amp;nbsp; target, grafik sebgai tolak ukur lokasi target &amp;amp; button stop DF" style="strokeWidth=2;html=1;shape=mxgraph.flowchart.display;whiteSpace=wrap;" vertex="1" parent="WIyWlLk6GJQsqaUBKTNV-1">
          <mxGeometry x="-5" y="1040" width="150" height="100" as="geometry" />
        </mxCell>
        <mxCell id="4o3yA48tjIdpUD1kdbq8-40" value="" style="edgeStyle=orthogonalEdgeStyle;rounded=0;orthogonalLoop=1;jettySize=auto;html=1;" edge="1" parent="WIyWlLk6GJQsqaUBKTNV-1" source="4o3yA48tjIdpUD1kdbq8-36" target="4o3yA48tjIdpUD1kdbq8-38">
          <mxGeometry relative="1" as="geometry" />
        </mxCell>
        <mxCell id="4o3yA48tjIdpUD1kdbq8-36" value="agen bergerak ke arah&amp;nbsp; yang membuat grafik semakin tinggi" style="rounded=1;whiteSpace=wrap;html=1;absoluteArcSize=1;arcSize=14;strokeWidth=2;" vertex="1" parent="WIyWlLk6GJQsqaUBKTNV-1">
          <mxGeometry x="20" y="1180" width="100" height="100" as="geometry" />
        </mxCell>
        <mxCell id="4o3yA48tjIdpUD1kdbq8-41" style="edgeStyle=elbowEdgeStyle;rounded=0;orthogonalLoop=1;jettySize=auto;html=1;entryX=1;entryY=0.5;entryDx=0;entryDy=0;" edge="1" parent="WIyWlLk6GJQsqaUBKTNV-1" source="4o3yA48tjIdpUD1kdbq8-38" target="4o3yA48tjIdpUD1kdbq8-36">
          <mxGeometry relative="1" as="geometry">
            <Array as="points">
              <mxPoint x="170" y="1300" />
            </Array>
          </mxGeometry>
        </mxCell>
        <mxCell id="4o3yA48tjIdpUD1kdbq8-43" style="rounded=0;orthogonalLoop=1;jettySize=auto;html=1;exitX=0.5;exitY=1;exitDx=0;exitDy=0;exitPerimeter=0;" edge="1" parent="WIyWlLk6GJQsqaUBKTNV-1" source="4o3yA48tjIdpUD1kdbq8-38" target="4o3yA48tjIdpUD1kdbq8-39">
          <mxGeometry relative="1" as="geometry" />
        </mxCell>
        <mxCell id="4o3yA48tjIdpUD1kdbq8-38" value="target ketemu?" style="strokeWidth=2;html=1;shape=mxgraph.flowchart.decision;whiteSpace=wrap;" vertex="1" parent="WIyWlLk6GJQsqaUBKTNV-1">
          <mxGeometry x="20" y="1320" width="100" height="100" as="geometry" />
        </mxCell>
        <mxCell id="4o3yA48tjIdpUD1kdbq8-39" value="Exit" style="strokeWidth=2;html=1;shape=mxgraph.flowchart.start_1;whiteSpace=wrap;" vertex="1" parent="WIyWlLk6GJQsqaUBKTNV-1">
          <mxGeometry x="20" y="1520" width="100" height="60" as="geometry" />
        </mxCell>
        <mxCell id="4o3yA48tjIdpUD1kdbq8-42" value="no" style="text;html=1;align=center;verticalAlign=middle;resizable=0;points=[];autosize=1;strokeColor=none;fillColor=none;" vertex="1" parent="WIyWlLk6GJQsqaUBKTNV-1">
          <mxGeometry x="120" y="1350" width="30" height="20" as="geometry" />
        </mxCell>
        <mxCell id="4o3yA48tjIdpUD1kdbq8-44" value="yes" style="text;html=1;align=center;verticalAlign=middle;resizable=0;points=[];autosize=1;strokeColor=none;fillColor=none;" vertex="1" parent="WIyWlLk6GJQsqaUBKTNV-1">
          <mxGeometry x="80" y="1440" width="30" height="20" as="geometry" />
        </mxCell>
        <mxCell id="4o3yA48tjIdpUD1kdbq8-48" style="edgeStyle=elbowEdgeStyle;rounded=0;orthogonalLoop=1;jettySize=auto;elbow=vertical;html=1;entryX=0.5;entryY=0;entryDx=0;entryDy=0;entryPerimeter=0;" edge="1" parent="WIyWlLk6GJQsqaUBKTNV-1" source="4o3yA48tjIdpUD1kdbq8-45" target="4o3yA48tjIdpUD1kdbq8-47">
          <mxGeometry relative="1" as="geometry" />
        </mxCell>
        <mxCell id="4o3yA48tjIdpUD1kdbq8-45" value="wifi target dijamming" style="rounded=1;whiteSpace=wrap;html=1;absoluteArcSize=1;arcSize=14;strokeWidth=2;" vertex="1" parent="WIyWlLk6GJQsqaUBKTNV-1">
          <mxGeometry x="180" y="930" width="100" height="100" as="geometry" />
        </mxCell>
        <mxCell id="4o3yA48tjIdpUD1kdbq8-50" style="edgeStyle=elbowEdgeStyle;rounded=0;orthogonalLoop=1;jettySize=auto;elbow=vertical;html=1;" edge="1" parent="WIyWlLk6GJQsqaUBKTNV-1" source="4o3yA48tjIdpUD1kdbq8-47" target="4o3yA48tjIdpUD1kdbq8-49">
          <mxGeometry relative="1" as="geometry" />
        </mxCell>
        <mxCell id="4o3yA48tjIdpUD1kdbq8-47" value="tampil list wifi yang sedang di jamming" style="strokeWidth=2;html=1;shape=mxgraph.flowchart.display;whiteSpace=wrap;" vertex="1" parent="WIyWlLk6GJQsqaUBKTNV-1">
          <mxGeometry x="180" y="1070" width="100" height="60" as="geometry" />
        </mxCell>
        <mxCell id="4o3yA48tjIdpUD1kdbq8-52" value="" style="edgeStyle=elbowEdgeStyle;rounded=0;orthogonalLoop=1;jettySize=auto;elbow=vertical;html=1;" edge="1" parent="WIyWlLk6GJQsqaUBKTNV-1" source="4o3yA48tjIdpUD1kdbq8-49" target="4o3yA48tjIdpUD1kdbq8-51">
          <mxGeometry relative="1" as="geometry" />
        </mxCell>
        <mxCell id="4o3yA48tjIdpUD1kdbq8-49" value="&lt;br&gt;stop salah satu / semua wifi yang dijamming?" style="strokeWidth=2;html=1;shape=mxgraph.flowchart.decision;whiteSpace=wrap;" vertex="1" parent="WIyWlLk6GJQsqaUBKTNV-1">
          <mxGeometry x="170" y="1160" width="120" height="110" as="geometry" />
        </mxCell>
        <mxCell id="4o3yA48tjIdpUD1kdbq8-51" value="klik tombol stop paada salah satu wifi di list wifi on jamming" style="whiteSpace=wrap;html=1;strokeWidth=2;" vertex="1" parent="WIyWlLk6GJQsqaUBKTNV-1">
          <mxGeometry x="170" y="1400" width="120" height="60" as="geometry" />
        </mxCell>
        <mxCell id="4o3yA48tjIdpUD1kdbq8-53" value="yes" style="text;html=1;align=center;verticalAlign=middle;resizable=0;points=[];autosize=1;strokeColor=none;fillColor=none;" vertex="1" parent="WIyWlLk6GJQsqaUBKTNV-1">
          <mxGeometry x="290" y="1190" width="30" height="20" as="geometry" />
        </mxCell>
        <mxCell id="4o3yA48tjIdpUD1kdbq8-55" value="" style="verticalLabelPosition=bottom;verticalAlign=top;html=1;shape=mxgraph.flowchart.or;" vertex="1" parent="WIyWlLk6GJQsqaUBKTNV-1">
          <mxGeometry x="409" y="510" width="10" height="15" as="geometry" />
        </mxCell>
        <mxCell id="4o3yA48tjIdpUD1kdbq8-60" value="" style="edgeStyle=orthogonalEdgeStyle;rounded=0;orthogonalLoop=1;jettySize=auto;html=1;endArrow=none;" edge="1" parent="WIyWlLk6GJQsqaUBKTNV-1" source="4o3yA48tjIdpUD1kdbq8-5" target="4o3yA48tjIdpUD1kdbq8-55">
          <mxGeometry relative="1" as="geometry">
            <mxPoint x="414" y="500" as="sourcePoint" />
            <mxPoint x="414" y="540" as="targetPoint" />
          </mxGeometry>
        </mxCell>
      </root>
    </mxGraphModel>
  </diagram>
</mxfile>
